<svg width="1128" height="431" viewBox="0 0 1128 431" fill="none" xmlns="http://www.w3.org/2000/svg">
<path d="M1015 324.3L1012.4 319.2L1015 314.2L1017.6 319.2L1015 324.3Z" fill="#66BCFF"/>
<path d="M589.8 78.6C590.629 78.6 591.3 77.9284 591.3 77.1C591.3 76.2715 590.629 75.6 589.8 75.6C588.972 75.6 588.3 76.2715 588.3 77.1C588.3 77.9284 588.972 78.6 589.8 78.6Z" fill="#B7CCFF"/>
<path d="M1042.2 370.7C1043.03 370.7 1043.7 370.028 1043.7 369.2C1043.7 368.372 1043.03 367.7 1042.2 367.7C1041.37 367.7 1040.7 368.372 1040.7 369.2C1040.7 370.028 1041.37 370.7 1042.2 370.7Z" fill="#B7CCFF"/>
<path d="M410.3 394.8C411.129 394.8 411.8 394.128 411.8 393.3C411.8 392.472 411.129 391.8 410.3 391.8C409.472 391.8 408.8 392.472 408.8 393.3C408.8 394.128 409.472 394.8 410.3 394.8Z" fill="#B7CCFF"/>
<path d="M680.1 221C681.701 221 683 219.702 683 218.1C683 216.498 681.701 215.2 680.1 215.2C678.498 215.2 677.2 216.498 677.2 218.1C677.2 219.702 678.498 221 680.1 221Z" fill="url(#paint0_linear_1349_7340)"/>
<path d="M932 272.5C933.602 272.5 934.9 271.202 934.9 269.6C934.9 267.998 933.602 266.7 932 266.7C930.398 266.7 929.1 267.998 929.1 269.6C929.1 271.202 930.398 272.5 932 272.5Z" fill="url(#paint1_linear_1349_7340)"/>
<path d="M591.5 154.5C592.218 154.5 592.8 153.918 592.8 153.2C592.8 152.482 592.218 151.9 591.5 151.9C590.782 151.9 590.2 152.482 590.2 153.2C590.2 153.918 590.782 154.5 591.5 154.5Z" fill="#FFE75C"/>
<path d="M407.3 321.6C407.742 321.6 408.1 321.242 408.1 320.8C408.1 320.358 407.742 320 407.3 320C406.858 320 406.5 320.358 406.5 320.8C406.5 321.242 406.858 321.6 407.3 321.6Z" fill="#FFE75C"/>
<path d="M321.7 261.2C322.252 261.2 322.7 260.752 322.7 260.2C322.7 259.648 322.252 259.2 321.7 259.2C321.147 259.2 320.7 259.648 320.7 260.2C320.7 260.752 321.147 261.2 321.7 261.2Z" fill="#B7CCFF"/>
<path d="M220.5 151.8C221.052 151.8 221.5 151.352 221.5 150.8C221.5 150.248 221.052 149.8 220.5 149.8C219.948 149.8 219.5 150.248 219.5 150.8C219.5 151.352 219.948 151.8 220.5 151.8Z" fill="#B7CCFF"/>
<path d="M291.3 242.4C291.742 242.4 292.1 242.042 292.1 241.6C292.1 241.158 291.742 240.8 291.3 240.8C290.858 240.8 290.5 241.158 290.5 241.6C290.5 242.042 290.858 242.4 291.3 242.4Z" fill="#B7CCFF"/>
<path d="M437.4 93.7C437.732 93.7 438 93.4314 438 93.1C438 92.7686 437.732 92.5 437.4 92.5C437.069 92.5 436.8 92.7686 436.8 93.1C436.8 93.4314 437.069 93.7 437.4 93.7Z" fill="#B7CCFF"/>
<path d="M101.2 267.1C101.531 267.1 101.8 266.831 101.8 266.5C101.8 266.169 101.531 265.9 101.2 265.9C100.869 265.9 100.6 266.169 100.6 266.5C100.6 266.831 100.869 267.1 101.2 267.1Z" fill="#B7CCFF"/>
<path d="M0.599998 39.1C0.931369 39.1 1.2 38.8314 1.2 38.5C1.2 38.1687 0.931369 37.9 0.599998 37.9C0.268628 37.9 0 38.1687 0 38.5C0 38.8314 0.268628 39.1 0.599998 39.1Z" fill="#B7CCFF"/>
<path d="M394.7 47.2C395.031 47.2 395.3 46.9314 395.3 46.6C395.3 46.2686 395.031 46 394.7 46C394.369 46 394.1 46.2686 394.1 46.6C394.1 46.9314 394.369 47.2 394.7 47.2Z" fill="#B7CCFF"/>
<path d="M37.1 180.9C37.4314 180.9 37.7 180.631 37.7 180.3C37.7 179.969 37.4314 179.7 37.1 179.7C36.7686 179.7 36.5 179.969 36.5 180.3C36.5 180.631 36.7686 180.9 37.1 180.9Z" fill="#B7CCFF"/>
<path d="M638 333.5C638.331 333.5 638.6 333.231 638.6 332.9C638.6 332.569 638.331 332.3 638 332.3C637.669 332.3 637.4 332.569 637.4 332.9C637.4 333.231 637.669 333.5 638 333.5Z" fill="#B7CCFF"/>
<path d="M304.4 22.8999C304.732 22.8999 305 22.6313 305 22.2999C305 21.9686 304.732 21.7 304.4 21.7C304.069 21.7 303.8 21.9686 303.8 22.2999C303.8 22.6313 304.069 22.8999 304.4 22.8999Z" fill="#B7CCFF"/>
<path d="M494.7 38.5C495.363 38.5 495.9 37.9627 495.9 37.3C495.9 36.6372 495.363 36.1 494.7 36.1C494.037 36.1 493.5 36.6372 493.5 37.3C493.5 37.9627 494.037 38.5 494.7 38.5Z" fill="#B7CCFF"/>
<path d="M338.6 93.7C339.263 93.7 339.8 93.1628 339.8 92.5C339.8 91.8373 339.263 91.3 338.6 91.3C337.937 91.3 337.4 91.8373 337.4 92.5C337.4 93.1628 337.937 93.7 338.6 93.7Z" fill="#B7CCFF"/>
<path d="M24.5003 65.8C25.163 65.8 25.7003 65.2628 25.7003 64.6C25.7003 63.9373 25.163 63.4 24.5003 63.4C23.8376 63.4 23.3003 63.9373 23.3003 64.6C23.3003 65.2628 23.8376 65.8 24.5003 65.8Z" fill="#B7CCFF"/>
<path d="M252.7 310.1C253.363 310.1 253.9 309.563 253.9 308.9C253.9 308.237 253.363 307.7 252.7 307.7C252.037 307.7 251.5 308.237 251.5 308.9C251.5 309.563 252.037 310.1 252.7 310.1Z" fill="#B7CCFF"/>
<path d="M742.1 366.6C742.763 366.6 743.3 366.063 743.3 365.4C743.3 364.737 742.763 364.2 742.1 364.2C741.437 364.2 740.9 364.737 740.9 365.4C740.9 366.063 741.437 366.6 742.1 366.6Z" fill="#B7CCFF"/>
<path d="M715.3 334.1C715.963 334.1 716.5 333.563 716.5 332.9C716.5 332.237 715.963 331.7 715.3 331.7C714.637 331.7 714.1 332.237 714.1 332.9C714.1 333.563 714.637 334.1 715.3 334.1Z" fill="#B7CCFF"/>
<path d="M865 189.8C865.552 189.8 866 189.352 866 188.8C866 188.248 865.552 187.8 865 187.8C864.448 187.8 864 188.248 864 188.8C864 189.352 864.448 189.8 865 189.8Z" fill="#B7CCFF"/>
<path d="M939.5 189.1C940.052 189.1 940.5 188.652 940.5 188.1C940.5 187.548 940.052 187.1 939.5 187.1C938.948 187.1 938.5 187.548 938.5 188.1C938.5 188.652 938.948 189.1 939.5 189.1Z" fill="#B7CCFF"/>
<path d="M793.8 333.9C794.352 333.9 794.8 333.452 794.8 332.9C794.8 332.348 794.352 331.9 793.8 331.9C793.248 331.9 792.8 332.348 792.8 332.9C792.8 333.452 793.248 333.9 793.8 333.9Z" fill="#B7CCFF"/>
<path d="M379.8 46.6C380.353 46.6 380.8 46.1523 380.8 45.6C380.8 45.0477 380.353 44.6 379.8 44.6C379.248 44.6 378.8 45.0477 378.8 45.6C378.8 46.1523 379.248 46.6 379.8 46.6Z" fill="#B7CCFF"/>
<path d="M905.3 186.6C905.852 186.6 906.3 186.152 906.3 185.6C906.3 185.048 905.852 184.6 905.3 184.6C904.748 184.6 904.3 185.048 904.3 185.6C904.3 186.152 904.748 186.6 905.3 186.6Z" fill="#B7CCFF"/>
<path d="M919.6 173.5C920.152 173.5 920.6 173.052 920.6 172.5C920.6 171.948 920.152 171.5 919.6 171.5C919.048 171.5 918.6 171.948 918.6 172.5C918.6 173.052 919.048 173.5 919.6 173.5Z" fill="#B7CCFF"/>
<path d="M807 407.8L804.3 402.7L807 397.7L809.6 402.7L807 407.8Z" fill="#91FFAD"/>
<path d="M769.7 74.7L767.1 69.6L769.7 64.6L772.3 69.6L769.7 74.7Z" fill="#91FFAD"/>
<path d="M662.7 6L661.2 3L662.7 0L664.3 3L662.7 6Z" fill="#B7CCFF"/>
<path d="M271.8 381.3L270.3 378.3L271.8 375.3L273.4 378.3L271.8 381.3Z" fill="#B7CCFF"/>
<path d="M151.5 168.3C152.052 168.3 152.5 167.852 152.5 167.3C152.5 166.748 152.052 166.3 151.5 166.3C150.948 166.3 150.5 166.748 150.5 167.3C150.5 167.852 150.948 168.3 151.5 168.3Z" fill="#B7CCFF"/>
<path d="M180.7 204.1C181.252 204.1 181.7 203.652 181.7 203.1C181.7 202.548 181.252 202.1 180.7 202.1C180.147 202.1 179.7 202.548 179.7 203.1C179.7 203.652 180.147 204.1 180.7 204.1Z" fill="#B7CCFF"/>
<path d="M153.5 131.2C154.052 131.2 154.5 130.752 154.5 130.2C154.5 129.648 154.052 129.2 153.5 129.2C152.948 129.2 152.5 129.648 152.5 130.2C152.5 130.752 152.948 131.2 153.5 131.2Z" fill="#B7CCFF"/>
<path d="M903.8 236.2C904.352 236.2 904.8 235.752 904.8 235.2C904.8 234.648 904.352 234.2 903.8 234.2C903.248 234.2 902.8 234.648 902.8 235.2C902.8 235.752 903.248 236.2 903.8 236.2Z" fill="#B7CCFF"/>
<path d="M834.3 329.1C834.852 329.1 835.3 328.652 835.3 328.1C835.3 327.548 834.852 327.1 834.3 327.1C833.748 327.1 833.3 327.548 833.3 328.1C833.3 328.652 833.748 329.1 834.3 329.1Z" fill="#B7CCFF"/>
<path d="M1054.1 199.4C1054.65 199.4 1055.1 198.952 1055.1 198.4C1055.1 197.848 1054.65 197.4 1054.1 197.4C1053.55 197.4 1053.1 197.848 1053.1 198.4C1053.1 198.952 1053.55 199.4 1054.1 199.4Z" fill="#B7CCFF"/>
<path d="M978.1 242.6C978.652 242.6 979.1 242.152 979.1 241.6C979.1 241.048 978.652 240.6 978.1 240.6C977.548 240.6 977.1 241.048 977.1 241.6C977.1 242.152 977.548 242.6 978.1 242.6Z" fill="#B7CCFF"/>
<path d="M619 29.9C619.552 29.9 620 29.4523 620 28.9C620 28.3477 619.552 27.9 619 27.9C618.448 27.9 618 28.3477 618 28.9C618 29.4523 618.448 29.9 619 29.9Z" fill="#B7CCFF"/>
<g style="mix-blend-mode:screen" opacity="0.7">
<path d="M410.3 243.8L407.1 237.5L410.3 231.3L413.6 237.5L410.3 243.8Z" fill="white"/>
</g>
<g style="mix-blend-mode:screen" opacity="0.29">
<path d="M581.5 169.7L580.6 167.9L581.5 166.1L582.5 167.9L581.5 169.7Z" fill="white"/>
</g>
<path opacity="0.7" d="M160.8 69.5C159.035 68.394 157.531 66.9183 156.391 65.1745C155.252 63.4308 154.504 61.4607 154.2 59.4L153.2 52.3C153.148 52.1462 153.056 52.0092 152.933 51.9035C152.809 51.7979 152.66 51.7276 152.5 51.7C152.33 51.6983 152.166 51.7581 152.037 51.8685C151.908 51.9788 151.824 52.1322 151.8 52.3L150.7 59.4C150.414 61.4541 149.684 63.4215 148.562 65.1655C147.439 66.9095 145.951 68.3886 144.2 69.5L143.2 70.1C143.026 70.2539 142.919 70.4688 142.9 70.7C142.919 70.9312 143.026 71.1461 143.2 71.3L144.2 71.9C145.951 73.0114 147.439 74.4904 148.562 76.2345C149.684 77.9785 150.414 79.9458 150.7 82L151.8 89.1C151.824 89.2678 151.908 89.4212 152.037 89.5315C152.166 89.6419 152.33 89.7017 152.5 89.7C152.66 89.6724 152.809 89.6021 152.933 89.4964C153.056 89.3908 153.148 89.2538 153.2 89.1L154.2 82C154.504 79.9393 155.252 77.9691 156.391 76.2254C157.531 74.4817 159.035 73.006 160.8 71.9L161.7 71.3C161.873 71.1461 161.981 70.9312 162 70.7C161.981 70.4688 161.873 70.2539 161.7 70.1L160.8 69.5Z" fill="#66BCFF"/>
<path opacity="0.7" d="M50.5998 410.5C48.8563 409.37 47.3684 407.887 46.2318 406.148C45.0952 404.409 44.3349 402.451 43.9998 400.4L42.9998 393.3C42.9756 393.132 42.8913 392.979 42.7626 392.868C42.6338 392.758 42.4694 392.698 42.2999 392.7C41.8999 392.7 41.5998 392.9 41.5998 393.3L40.4998 400.4C40.1885 402.446 39.4486 404.404 38.3285 406.144C37.2083 407.885 35.7333 409.369 33.9998 410.5L32.9998 411.1C32.9036 411.167 32.8257 411.257 32.7733 411.362C32.7209 411.467 32.6956 411.583 32.6999 411.7C32.6844 411.819 32.7047 411.939 32.7582 412.046C32.8116 412.153 32.8958 412.241 32.9998 412.3L33.9998 412.9C35.7448 414.042 37.2268 415.542 38.3475 417.301C39.4682 419.059 40.2019 421.036 40.4998 423.1L41.5998 430.2C41.6241 430.368 41.7084 430.521 41.8371 430.632C41.9659 430.742 42.1303 430.802 42.2999 430.8C42.4598 430.772 42.6093 430.702 42.7325 430.596C42.8557 430.491 42.9481 430.354 42.9998 430.2L43.9998 423.1C44.3156 421.03 45.0672 419.05 46.205 417.292C47.3427 415.533 48.8407 414.036 50.5998 412.9L51.4998 412.3C51.6039 412.241 51.6881 412.153 51.7415 412.046C51.795 411.939 51.8153 411.819 51.7999 411.7C51.8041 411.583 51.7788 411.467 51.7264 411.362C51.674 411.257 51.5961 411.167 51.4998 411.1L50.5998 410.5Z" fill="#FFE75C"/>
<path opacity="0.7" d="M50.5998 110.5C48.8563 109.37 47.3684 107.887 46.2318 106.148C45.0952 104.409 44.3349 102.451 43.9998 100.4L42.9998 93.3C42.9756 93.1322 42.8913 92.9788 42.7626 92.8685C42.6338 92.7581 42.4694 92.6983 42.2999 92.7C41.8999 92.7 41.5998 92.9 41.5998 93.3L40.4998 100.4C40.1885 102.446 39.4486 104.404 38.3285 106.144C37.2083 107.885 35.7333 109.369 33.9998 110.5L32.9998 111.1C32.9036 111.167 32.8257 111.257 32.7733 111.362C32.7209 111.467 32.6956 111.583 32.6999 111.7C32.6844 111.819 32.7047 111.939 32.7582 112.046C32.8116 112.153 32.8958 112.241 32.9998 112.3L33.9998 112.9C35.7448 114.042 37.2268 115.542 38.3475 117.301C39.4682 119.059 40.2019 121.036 40.4998 123.1L41.5998 130.2C41.6241 130.368 41.7084 130.521 41.8371 130.632C41.9659 130.742 42.1303 130.802 42.2999 130.8C42.4598 130.772 42.6093 130.702 42.7325 130.596C42.8557 130.491 42.9481 130.354 42.9998 130.2L43.9998 123.1C44.3156 121.03 45.0672 119.05 46.205 117.292C47.3427 115.533 48.8407 114.036 50.5998 112.9L51.4998 112.3C51.6039 112.241 51.6881 112.153 51.7415 112.046C51.795 111.939 51.8153 111.819 51.7999 111.7C51.8041 111.583 51.7788 111.467 51.7264 111.362C51.674 111.257 51.5961 111.167 51.4998 111.1L50.5998 110.5Z" fill="#FFE75C"/>
<path opacity="0.7" d="M231 245.6C229.666 244.747 228.529 243.619 227.667 242.291C226.804 240.963 226.236 239.466 226 237.9L225.2 232.5C225.177 232.385 225.114 232.283 225.023 232.209C224.931 232.136 224.817 232.098 224.7 232.1C224.583 232.098 224.469 232.136 224.378 232.209C224.286 232.283 224.224 232.385 224.2 232.5L223.3 237.9C223.108 239.467 222.569 240.972 221.721 242.304C220.874 243.637 219.739 244.763 218.4 245.6L217.7 246C217.604 246.041 217.524 246.112 217.47 246.202C217.416 246.291 217.392 246.396 217.4 246.5C217.392 246.604 217.416 246.709 217.47 246.798C217.524 246.888 217.604 246.958 217.7 247L218.4 247.4C219.739 248.237 220.874 249.363 221.721 250.696C222.569 252.028 223.108 253.533 223.3 255.1L224.2 260.5C224.224 260.615 224.286 260.717 224.378 260.791C224.469 260.864 224.583 260.902 224.7 260.9C224.817 260.902 224.931 260.864 225.023 260.791C225.114 260.717 225.177 260.615 225.2 260.5L226 255.1C226.236 253.534 226.804 252.037 227.667 250.709C228.529 249.381 229.666 248.253 231 247.4L231.7 247C231.823 246.861 231.893 246.685 231.9 246.5C231.893 246.315 231.823 246.139 231.7 246L231 245.6Z" fill="#8CD9FF"/>
<path opacity="0.6" d="M471 131.4C470.431 131.059 469.947 130.594 469.584 130.04C469.22 129.486 468.986 128.857 468.9 128.2L468.6 125.9H468.1L467.8 128.2C467.694 128.851 467.452 129.472 467.09 130.023C466.729 130.575 466.255 131.044 465.7 131.4L465.4 131.6V131.8C465.4 131.9 465.4 132 465.5 132L465.8 132.2C466.355 132.556 466.829 133.025 467.19 133.577C467.552 134.128 467.794 134.749 467.9 135.4L468.2 137.7L468.4 137.9L468.7 137.7L469 135.4C469.086 134.743 469.32 134.114 469.684 133.56C470.047 133.006 470.531 132.541 471.1 132.2L471.4 132V131.8V131.6L471 131.4Z" fill="#FFF2A6"/>
<path opacity="0.7" d="M770.7 228.1C770.129 227.738 769.645 227.255 769.282 226.684C768.919 226.114 768.686 225.471 768.6 224.8L768.2 222.6C768.2 222.547 768.179 222.496 768.141 222.459C768.104 222.421 768.053 222.4 768 222.4C767.947 222.4 767.896 222.421 767.859 222.459C767.821 222.496 767.8 222.547 767.8 222.6L767.5 224.8C767.395 225.465 767.155 226.101 766.794 226.669C766.432 227.236 765.958 227.724 765.4 228.1L765.1 228.3C765 228.3 765 228.4 765 228.5C765.006 228.577 765.042 228.649 765.1 228.7H765.4C765.958 229.076 766.432 229.564 766.794 230.131C767.155 230.699 767.395 231.335 767.5 232L767.8 234.2C767.8 234.253 767.821 234.304 767.859 234.341C767.896 234.379 767.947 234.4 768 234.4C768.053 234.4 768.104 234.379 768.141 234.341C768.179 234.304 768.2 234.253 768.2 234.2L768.6 232C768.686 231.329 768.919 230.686 769.282 230.116C769.645 229.545 770.129 229.062 770.7 228.7H771V228.5V228.3L770.7 228.1Z" fill="#96FFFD"/>
<path d="M682.7 51.3C682.145 50.9438 681.671 50.4747 681.309 49.9234C680.948 49.3721 680.706 48.7508 680.6 48.1L680.3 45.8C680.3 45.7469 680.279 45.6961 680.241 45.6586C680.204 45.621 680.153 45.6 680.1 45.6L679.8 45.8L679.5 48.1C679.394 48.7508 679.152 49.3721 678.79 49.9234C678.429 50.4747 677.955 50.9438 677.4 51.3L677.1 51.5C677.1 51.6 677 51.6 677 51.7V51.9L677.3 52.1C677.855 52.4562 678.329 52.9252 678.69 53.4765C679.052 54.0278 679.294 54.6491 679.4 55.3L679.7 57.6L680 57.8C680.053 57.8 680.104 57.7789 680.141 57.7414C680.179 57.7039 680.2 57.653 680.2 57.6L680.5 55.3C680.606 54.6491 680.848 54.0278 681.209 53.4765C681.571 52.9252 682.045 52.4562 682.6 52.1L682.9 51.9C683 51.9 683 51.8 683 51.7C683 51.6 683 51.6 682.9 51.5L682.7 51.3Z" fill="#765EFF"/>
<path opacity="0.7" d="M422.3 34.0998C421.283 33.4436 420.418 32.5778 419.763 31.5603C419.107 30.5428 418.677 29.3971 418.5 28.1998L417.9 24.0998C417.9 23.8998 417.7 23.7998 417.5 23.7998C417.3 23.7998 417.1 23.8998 417.1 24.0998L416.4 28.1998C416.241 29.3906 415.828 30.5335 415.19 31.5513C414.552 32.5691 413.703 33.4382 412.7 34.0998L412.1 34.3998C412.038 34.4464 411.987 34.5068 411.953 34.5762C411.918 34.6456 411.9 34.7222 411.9 34.7998C411.9 34.8774 411.918 34.954 411.953 35.0234C411.987 35.0928 412.038 35.1532 412.1 35.1998L412.7 35.4998C413.703 36.1614 414.552 37.0305 415.19 38.0483C415.828 39.0661 416.241 40.209 416.4 41.3998L417.1 45.4998C417.1 45.6998 417.3 45.7998 417.5 45.7998C417.7 45.7998 417.9 45.6998 417.9 45.4998L418.5 41.3998C418.677 40.2025 419.107 39.0568 419.763 38.0393C420.418 37.0218 421.283 36.156 422.3 35.4998L422.8 35.1998C422.862 35.1532 422.912 35.0928 422.947 35.0234C422.982 34.954 423 34.8774 423 34.7998C423 34.7222 422.982 34.6456 422.947 34.5762C422.912 34.5068 422.862 34.4464 422.8 34.3998L422.3 34.0998Z" fill="#FF78B9"/>
<path d="M914.099 344.6C913.265 344.039 912.552 343.317 912.002 342.475C911.452 341.633 911.077 340.69 910.899 339.7L910.399 336.3C910.399 336.22 910.368 336.144 910.312 336.088C910.255 336.032 910.179 336 910.099 336C910.02 336 909.944 336.032 909.887 336.088C909.831 336.144 909.799 336.22 909.799 336.3L909.199 339.7C909.063 340.691 908.715 341.641 908.181 342.486C907.646 343.331 906.936 344.052 906.099 344.6L905.599 344.9C905.563 344.941 905.536 344.988 905.519 345.04C905.501 345.091 905.495 345.146 905.499 345.2C905.499 345.3 905.499 345.5 905.599 345.5L906.099 345.8C906.936 346.348 907.646 347.069 908.181 347.914C908.715 348.759 909.063 349.709 909.199 350.7L909.799 354.1C909.799 354.18 909.831 354.256 909.887 354.312C909.944 354.368 910.02 354.4 910.099 354.4C910.179 354.4 910.255 354.368 910.312 354.312C910.368 354.256 910.399 354.18 910.399 354.1L910.899 350.7C911.077 349.71 911.452 348.767 912.002 347.925C912.552 347.083 913.265 346.361 914.099 345.8L914.599 345.5C914.699 345.5 914.699 345.3 914.699 345.2C914.704 345.146 914.698 345.091 914.68 345.04C914.663 344.988 914.636 344.941 914.599 344.9L914.099 344.6Z" fill="#8C4FFD"/>
<g style="mix-blend-mode:screen" opacity="0.7">
<path d="M173.2 377.7L169.9 371.6L173.2 365.4L176.4 371.6L173.2 377.7Z" fill="white"/>
</g>
<path opacity="0.7" d="M966 223.1L955.6 203.1L966 183.1L976.4 203.1L966 223.1Z" fill="#FD96FF"/>
<path opacity="0.7" d="M879.007 240.9L869 221.6L879.007 202.3L889.094 221.6L879.007 240.9Z" fill="#96FFFD"/>
<path d="M125.9 170C126.452 170 126.9 169.552 126.9 169C126.9 168.448 126.452 168 125.9 168C125.348 168 124.9 168.448 124.9 169C124.9 169.552 125.348 170 125.9 170Z" fill="#7C78FF"/>
<path d="M369.9 166.5C370.673 166.5 371.3 165.873 371.3 165.1C371.3 164.327 370.673 163.7 369.9 163.7C369.127 163.7 368.5 164.327 368.5 165.1C368.5 165.873 369.127 166.5 369.9 166.5Z" fill="#B7CCFF"/>
<path d="M812.2 310C812.808 310 813.3 309.508 813.3 308.9C813.3 308.292 812.808 307.8 812.2 307.8C811.593 307.8 811.1 308.292 811.1 308.9C811.1 309.508 811.593 310 812.2 310Z" fill="url(#paint2_linear_1349_7340)"/>
<path d="M737.4 101.6C738.007 101.6 738.5 101.108 738.5 100.5C738.5 99.8925 738.007 99.4 737.4 99.4C736.792 99.4 736.3 99.8925 736.3 100.5C736.3 101.108 736.792 101.6 737.4 101.6Z" fill="#7C78FF"/>
<path d="M1128.2 24.5865C1123.75 16.1206 1118.83 7.9121 1113.46 0L880 0C887.588 15.8317 894.731 25.3677 911 38.5C901.661 90.4454 943.43 132 994.5 132C1036.23 162.642 1083.11 179.693 1123.17 153.866C1124.94 152.757 1126.62 151.513 1128.2 150.146V24.5865Z" fill="#D0BAFF"/>
<path d="M1128.2 19.3336C1124.77 12.9864 1120.98 6.49318 1116.75 0H882.043C890.22 14.1183 900.958 26.5881 913.706 36.7704C904.368 88.7888 944.275 128.477 995.345 128.477C1037.08 159.046 1086.03 177.14 1127.18 151.021L1128.2 150.365V19.3336Z" fill="#C1A3FF"/>
<path d="M1128.2 19.3336C1124.77 12.9864 1120.98 6.49318 1116.75 0H944.276C951.28 64.9318 995.71 76.9697 1012.93 80.6905C1031.82 84.7761 1033.28 85.3598 1037 100.17C1048.02 143.215 1093.04 170.501 1128.2 149.781V19.3336Z" fill="#B095FF"/>
<defs>
<linearGradient id="paint0_linear_1349_7340" x1="677.17" y1="218.1" x2="682.96" y2="218.1" gradientUnits="userSpaceOnUse">
<stop stop-color="#C7D4FF"/>
<stop offset="1" stop-color="#A8BDFF"/>
</linearGradient>
<linearGradient id="paint1_linear_1349_7340" x1="929.07" y1="269.63" x2="934.87" y2="269.63" gradientUnits="userSpaceOnUse">
<stop stop-color="#C7D4FF"/>
<stop offset="1" stop-color="#A8BDFF"/>
</linearGradient>
<linearGradient id="paint2_linear_1349_7340" x1="813.76" y1="310.45" x2="810.34" y2="307.03" gradientUnits="userSpaceOnUse">
<stop stop-color="#593FD1"/>
<stop offset="0.68" stop-color="#8354FF"/>
</linearGradient>
</defs>
</svg>
